# xmcd
#
# Track frame offsets:
#	150
#	29388
#	54183
#	79590
#	100145
#	120400
#	138313
#	161343
#	187906
#	205694
#	232490
#
# Disc length: 3527 seconds
#
# Revision: 1
# Processed by: cddbd v1.5.2PL0 Copyright (c) Steve Scherf et al.
# Submitted via: audiograbber 1.83.01
#
DISCID=840dc50b
DTITLE=Joan Baez - TCGCM_3_3_Speaking of Dreams
DYEAR=2017
DGENRE=Folk
TTITLE0=China
TTITLE1=Warriors of the sun
TTITLE2=Carrickfergus
TTITLE3=Hand to mouth
TTITLE4=Speaking of dreams
TTITLE5=El Salvador
TTITLE6=Rambler Gambler__Whispering bells
TTITLE7=Fairfax County
TTITLE8=A mi manera
TTITLE9=Goodnight Saigon
TTITLE10=Warriors of the sun__She's got a ticket
EXTD=www.proper-records.co.uk\nPRPCD141\n\nTCGCM CD 3/3 Speaking of Dreams \nTh
EXTD=e Complete Gold Castle Masters\n2017
EXTT0=
EXTT1=
EXTT2=
EXTT3=
EXTT4=
EXTT5=
EXTT6=
EXTT7=
EXTT8=
EXTT9=
EXTT10=
PLAYORDER=
